<mxfile host="app.diagrams.net" modified="2021-07-11T11:54:57.916Z" agent="5.0 (Macintosh; Intel Mac OS X 10_15_6) AppleWebKit/605.1.15 (KHTML, like Gecko) Version/14.0.3 Safari/605.1.15" etag="ZUxZ3qXXCOTn13WzUP3T" version="14.6.11" type="github">
  <diagram id="Zd0G4eMJvc-VuovIRfDe" name="第 1 页">
    <mxGraphModel dx="946" dy="443" grid="1" gridSize="10" guides="1" tooltips="1" connect="1" arrows="1" fold="1" page="1" pageScale="1" pageWidth="827" pageHeight="1169" math="0" shadow="0">
      <root>
        <mxCell id="0" />
        <mxCell id="1" parent="0" />
        <mxCell id="oPBaYPM9aBt6Zc6ojSiM-53" value="" style="rounded=0;whiteSpace=wrap;html=1;fontSize=16;" vertex="1" parent="1">
          <mxGeometry x="60" y="190" width="860" height="170" as="geometry" />
        </mxCell>
        <mxCell id="oPBaYPM9aBt6Zc6ojSiM-52" value="" style="rounded=0;whiteSpace=wrap;html=1;fontSize=16;" vertex="1" parent="1">
          <mxGeometry x="60" y="360" width="860" height="170" as="geometry" />
        </mxCell>
        <mxCell id="oPBaYPM9aBt6Zc6ojSiM-49" value="" style="rounded=0;whiteSpace=wrap;html=1;fontSize=16;" vertex="1" parent="1">
          <mxGeometry x="60" y="20" width="860" height="170" as="geometry" />
        </mxCell>
        <mxCell id="oPBaYPM9aBt6Zc6ojSiM-1" value="" style="rounded=0;whiteSpace=wrap;html=1;fontSize=16;" vertex="1" parent="1">
          <mxGeometry x="200" y="120" width="40" height="40" as="geometry" />
        </mxCell>
        <mxCell id="oPBaYPM9aBt6Zc6ojSiM-2" value="" style="rounded=0;whiteSpace=wrap;html=1;fontSize=16;" vertex="1" parent="1">
          <mxGeometry x="240" y="120" width="40" height="40" as="geometry" />
        </mxCell>
        <mxCell id="oPBaYPM9aBt6Zc6ojSiM-3" value="" style="rounded=0;whiteSpace=wrap;html=1;fontSize=16;" vertex="1" parent="1">
          <mxGeometry x="280" y="120" width="40" height="40" as="geometry" />
        </mxCell>
        <mxCell id="oPBaYPM9aBt6Zc6ojSiM-4" value="" style="rounded=0;whiteSpace=wrap;html=1;fontSize=16;" vertex="1" parent="1">
          <mxGeometry x="320" y="120" width="40" height="40" as="geometry" />
        </mxCell>
        <mxCell id="oPBaYPM9aBt6Zc6ojSiM-5" value="" style="rounded=0;whiteSpace=wrap;html=1;fontSize=16;" vertex="1" parent="1">
          <mxGeometry x="360" y="120" width="40" height="40" as="geometry" />
        </mxCell>
        <mxCell id="oPBaYPM9aBt6Zc6ojSiM-6" value="" style="rounded=0;whiteSpace=wrap;html=1;fontSize=16;" vertex="1" parent="1">
          <mxGeometry x="400" y="120" width="40" height="40" as="geometry" />
        </mxCell>
        <mxCell id="oPBaYPM9aBt6Zc6ojSiM-7" value="" style="rounded=0;whiteSpace=wrap;html=1;fontSize=16;" vertex="1" parent="1">
          <mxGeometry x="440" y="120" width="40" height="40" as="geometry" />
        </mxCell>
        <mxCell id="oPBaYPM9aBt6Zc6ojSiM-8" value="" style="rounded=0;whiteSpace=wrap;html=1;fontSize=16;" vertex="1" parent="1">
          <mxGeometry x="480" y="120" width="40" height="40" as="geometry" />
        </mxCell>
        <mxCell id="oPBaYPM9aBt6Zc6ojSiM-9" value="" style="rounded=0;whiteSpace=wrap;html=1;fontSize=16;" vertex="1" parent="1">
          <mxGeometry x="200" y="260" width="40" height="40" as="geometry" />
        </mxCell>
        <mxCell id="oPBaYPM9aBt6Zc6ojSiM-10" value="" style="rounded=0;whiteSpace=wrap;html=1;fontSize=16;" vertex="1" parent="1">
          <mxGeometry x="240" y="260" width="40" height="40" as="geometry" />
        </mxCell>
        <mxCell id="oPBaYPM9aBt6Zc6ojSiM-11" value="" style="rounded=0;whiteSpace=wrap;html=1;fontSize=16;" vertex="1" parent="1">
          <mxGeometry x="280" y="260" width="40" height="40" as="geometry" />
        </mxCell>
        <mxCell id="oPBaYPM9aBt6Zc6ojSiM-12" value="" style="rounded=0;whiteSpace=wrap;html=1;fontSize=16;fillColor=#f8cecc;strokeColor=#b85450;" vertex="1" parent="1">
          <mxGeometry x="320" y="260" width="40" height="40" as="geometry" />
        </mxCell>
        <mxCell id="oPBaYPM9aBt6Zc6ojSiM-13" value="" style="rounded=0;whiteSpace=wrap;html=1;fontSize=16;fillColor=#f8cecc;strokeColor=#b85450;" vertex="1" parent="1">
          <mxGeometry x="360" y="260" width="40" height="40" as="geometry" />
        </mxCell>
        <mxCell id="oPBaYPM9aBt6Zc6ojSiM-14" value="" style="rounded=0;whiteSpace=wrap;html=1;fillColor=#f8cecc;strokeColor=#b85450;fontSize=16;" vertex="1" parent="1">
          <mxGeometry x="400" y="260" width="40" height="40" as="geometry" />
        </mxCell>
        <mxCell id="oPBaYPM9aBt6Zc6ojSiM-15" value="" style="rounded=0;whiteSpace=wrap;html=1;fillColor=#f8cecc;strokeColor=#b85450;fontSize=16;" vertex="1" parent="1">
          <mxGeometry x="440" y="260" width="40" height="40" as="geometry" />
        </mxCell>
        <mxCell id="oPBaYPM9aBt6Zc6ojSiM-16" value="" style="rounded=0;whiteSpace=wrap;html=1;fillColor=#f8cecc;strokeColor=#b85450;fontSize=16;" vertex="1" parent="1">
          <mxGeometry x="480" y="260" width="40" height="40" as="geometry" />
        </mxCell>
        <mxCell id="oPBaYPM9aBt6Zc6ojSiM-17" value="" style="rounded=0;whiteSpace=wrap;html=1;fillColor=#f8cecc;strokeColor=#b85450;fontSize=16;" vertex="1" parent="1">
          <mxGeometry x="200" y="460" width="40" height="40" as="geometry" />
        </mxCell>
        <mxCell id="oPBaYPM9aBt6Zc6ojSiM-18" value="" style="rounded=0;whiteSpace=wrap;html=1;fillColor=#f8cecc;strokeColor=#b85450;fontSize=16;" vertex="1" parent="1">
          <mxGeometry x="240" y="460" width="40" height="40" as="geometry" />
        </mxCell>
        <mxCell id="oPBaYPM9aBt6Zc6ojSiM-19" value="" style="rounded=0;whiteSpace=wrap;html=1;fillColor=#f8cecc;strokeColor=#b85450;fontSize=16;" vertex="1" parent="1">
          <mxGeometry x="280" y="460" width="40" height="40" as="geometry" />
        </mxCell>
        <mxCell id="oPBaYPM9aBt6Zc6ojSiM-20" value="" style="rounded=0;whiteSpace=wrap;html=1;fillColor=#f8cecc;strokeColor=#b85450;fontSize=16;" vertex="1" parent="1">
          <mxGeometry x="320" y="460" width="40" height="40" as="geometry" />
        </mxCell>
        <mxCell id="oPBaYPM9aBt6Zc6ojSiM-21" value="" style="rounded=0;whiteSpace=wrap;html=1;fillColor=#f8cecc;strokeColor=#b85450;fontSize=16;" vertex="1" parent="1">
          <mxGeometry x="360" y="460" width="40" height="40" as="geometry" />
        </mxCell>
        <mxCell id="oPBaYPM9aBt6Zc6ojSiM-22" value="" style="rounded=0;whiteSpace=wrap;html=1;fillColor=#f8cecc;strokeColor=#b85450;fontSize=16;" vertex="1" parent="1">
          <mxGeometry x="400" y="460" width="40" height="40" as="geometry" />
        </mxCell>
        <mxCell id="oPBaYPM9aBt6Zc6ojSiM-23" value="" style="rounded=0;whiteSpace=wrap;html=1;fillColor=#f8cecc;strokeColor=#b85450;fontSize=16;" vertex="1" parent="1">
          <mxGeometry x="440" y="460" width="40" height="40" as="geometry" />
        </mxCell>
        <mxCell id="oPBaYPM9aBt6Zc6ojSiM-24" value="" style="rounded=0;whiteSpace=wrap;html=1;fillColor=#f8cecc;strokeColor=#b85450;fontSize=16;" vertex="1" parent="1">
          <mxGeometry x="480" y="460" width="40" height="40" as="geometry" />
        </mxCell>
        <mxCell id="oPBaYPM9aBt6Zc6ojSiM-25" value="" style="shape=flexArrow;endArrow=classic;html=1;fontSize=16;" edge="1" parent="1">
          <mxGeometry width="50" height="50" relative="1" as="geometry">
            <mxPoint x="550" y="139.5" as="sourcePoint" />
            <mxPoint x="640" y="139.5" as="targetPoint" />
          </mxGeometry>
        </mxCell>
        <mxCell id="oPBaYPM9aBt6Zc6ojSiM-26" value="" style="shape=flexArrow;endArrow=classic;html=1;fontSize=16;" edge="1" parent="1">
          <mxGeometry width="50" height="50" relative="1" as="geometry">
            <mxPoint x="550" y="279.5" as="sourcePoint" />
            <mxPoint x="640" y="279.5" as="targetPoint" />
          </mxGeometry>
        </mxCell>
        <mxCell id="oPBaYPM9aBt6Zc6ojSiM-27" value="" style="shape=flexArrow;endArrow=classic;html=1;fontSize=16;" edge="1" parent="1">
          <mxGeometry width="50" height="50" relative="1" as="geometry">
            <mxPoint x="550" y="479.5" as="sourcePoint" />
            <mxPoint x="640" y="479.5" as="targetPoint" />
          </mxGeometry>
        </mxCell>
        <mxCell id="oPBaYPM9aBt6Zc6ojSiM-38" style="edgeStyle=orthogonalEdgeStyle;curved=1;rounded=0;orthogonalLoop=1;jettySize=auto;html=1;fontSize=16;" edge="1" parent="1" source="oPBaYPM9aBt6Zc6ojSiM-28">
          <mxGeometry relative="1" as="geometry">
            <mxPoint x="180" y="500" as="targetPoint" />
          </mxGeometry>
        </mxCell>
        <mxCell id="oPBaYPM9aBt6Zc6ojSiM-28" value="报文" style="rounded=1;whiteSpace=wrap;html=1;fontSize=16;gradientColor=#7ea6e0;fillColor=#dae8fc;strokeColor=#6c8ebf;" vertex="1" parent="1">
          <mxGeometry x="100" y="410" width="70" height="40" as="geometry" />
        </mxCell>
        <mxCell id="oPBaYPM9aBt6Zc6ojSiM-37" style="edgeStyle=orthogonalEdgeStyle;curved=1;rounded=0;orthogonalLoop=1;jettySize=auto;html=1;entryX=0.5;entryY=0;entryDx=0;entryDy=0;fontSize=16;" edge="1" parent="1" source="oPBaYPM9aBt6Zc6ojSiM-29" target="oPBaYPM9aBt6Zc6ojSiM-11">
          <mxGeometry relative="1" as="geometry" />
        </mxCell>
        <mxCell id="oPBaYPM9aBt6Zc6ojSiM-29" value="报文" style="rounded=1;whiteSpace=wrap;html=1;fontSize=16;gradientColor=#7ea6e0;fillColor=#dae8fc;strokeColor=#6c8ebf;" vertex="1" parent="1">
          <mxGeometry x="100" y="210" width="70" height="40" as="geometry" />
        </mxCell>
        <mxCell id="oPBaYPM9aBt6Zc6ojSiM-36" style="edgeStyle=orthogonalEdgeStyle;rounded=0;orthogonalLoop=1;jettySize=auto;html=1;entryX=0.25;entryY=0;entryDx=0;entryDy=0;fontSize=16;curved=1;exitX=1;exitY=0.5;exitDx=0;exitDy=0;" edge="1" parent="1" source="oPBaYPM9aBt6Zc6ojSiM-30" target="oPBaYPM9aBt6Zc6ojSiM-31">
          <mxGeometry relative="1" as="geometry">
            <Array as="points">
              <mxPoint x="190" y="90" />
              <mxPoint x="190" y="80" />
              <mxPoint x="725" y="80" />
            </Array>
          </mxGeometry>
        </mxCell>
        <mxCell id="oPBaYPM9aBt6Zc6ojSiM-30" value="报文" style="rounded=1;whiteSpace=wrap;html=1;fontSize=16;gradientColor=#7ea6e0;fillColor=#dae8fc;strokeColor=#6c8ebf;" vertex="1" parent="1">
          <mxGeometry x="100" y="70" width="70" height="40" as="geometry" />
        </mxCell>
        <mxCell id="oPBaYPM9aBt6Zc6ojSiM-31" value="" style="rounded=1;whiteSpace=wrap;html=1;fontSize=16;fillColor=#d5e8d4;strokeColor=#82b366;gradientColor=#97d077;" vertex="1" parent="1">
          <mxGeometry x="670" y="110" width="220" height="60" as="geometry" />
        </mxCell>
        <mxCell id="oPBaYPM9aBt6Zc6ojSiM-32" value="网络链路" style="text;html=1;align=center;verticalAlign=middle;resizable=0;points=[];autosize=1;strokeColor=none;fontSize=16;" vertex="1" parent="1">
          <mxGeometry x="740" y="80" width="80" height="20" as="geometry" />
        </mxCell>
        <mxCell id="oPBaYPM9aBt6Zc6ojSiM-33" value="缓冲队队列" style="text;html=1;align=center;verticalAlign=middle;resizable=0;points=[];autosize=1;strokeColor=none;fontSize=16;" vertex="1" parent="1">
          <mxGeometry x="310" y="90" width="100" height="20" as="geometry" />
        </mxCell>
        <mxCell id="oPBaYPM9aBt6Zc6ojSiM-34" value="缓冲队队列" style="text;html=1;align=center;verticalAlign=middle;resizable=0;points=[];autosize=1;strokeColor=none;fontSize=16;" vertex="1" parent="1">
          <mxGeometry x="310" y="230" width="100" height="20" as="geometry" />
        </mxCell>
        <mxCell id="oPBaYPM9aBt6Zc6ojSiM-35" value="缓冲队队列" style="text;html=1;align=center;verticalAlign=middle;resizable=0;points=[];autosize=1;strokeColor=none;fontSize=16;" vertex="1" parent="1">
          <mxGeometry x="314" y="430" width="100" height="20" as="geometry" />
        </mxCell>
        <mxCell id="oPBaYPM9aBt6Zc6ojSiM-39" value="丢包" style="text;html=1;align=center;verticalAlign=middle;resizable=0;points=[];autosize=1;strokeColor=#B20000;fontSize=16;fillColor=#e51400;fontColor=#ffffff;" vertex="1" parent="1">
          <mxGeometry x="140" y="460" width="50" height="20" as="geometry" />
        </mxCell>
        <mxCell id="oPBaYPM9aBt6Zc6ojSiM-42" value="" style="rounded=1;whiteSpace=wrap;html=1;fontSize=16;fillColor=#d5e8d4;strokeColor=#82b366;gradientColor=#97d077;" vertex="1" parent="1">
          <mxGeometry x="670" y="250" width="220" height="60" as="geometry" />
        </mxCell>
        <mxCell id="oPBaYPM9aBt6Zc6ojSiM-43" value="网络链路" style="text;html=1;align=center;verticalAlign=middle;resizable=0;points=[];autosize=1;strokeColor=none;fontSize=16;" vertex="1" parent="1">
          <mxGeometry x="740" y="220" width="80" height="20" as="geometry" />
        </mxCell>
        <mxCell id="oPBaYPM9aBt6Zc6ojSiM-44" value="" style="rounded=1;whiteSpace=wrap;html=1;fontSize=16;fillColor=#d5e8d4;strokeColor=#82b366;gradientColor=#97d077;" vertex="1" parent="1">
          <mxGeometry x="670" y="455" width="220" height="60" as="geometry" />
        </mxCell>
        <mxCell id="oPBaYPM9aBt6Zc6ojSiM-45" value="网络链路" style="text;html=1;align=center;verticalAlign=middle;resizable=0;points=[];autosize=1;strokeColor=none;fontSize=16;" vertex="1" parent="1">
          <mxGeometry x="740" y="425" width="80" height="20" as="geometry" />
        </mxCell>
        <mxCell id="oPBaYPM9aBt6Zc6ojSiM-46" value="速度最快" style="text;html=1;align=center;verticalAlign=middle;resizable=0;points=[];autosize=1;strokeColor=#36393d;fontSize=20;fillColor=#cdeb8b;" vertex="1" parent="1">
          <mxGeometry x="440" y="25" width="100" height="30" as="geometry" />
        </mxCell>
        <mxCell id="oPBaYPM9aBt6Zc6ojSiM-47" value="速度降低" style="text;html=1;align=center;verticalAlign=middle;resizable=0;points=[];autosize=1;strokeColor=#d79b00;fontSize=19;fillColor=#ffe6cc;" vertex="1" parent="1">
          <mxGeometry x="445" y="195" width="90" height="30" as="geometry" />
        </mxCell>
        <mxCell id="oPBaYPM9aBt6Zc6ojSiM-48" value="丢包" style="text;html=1;align=center;verticalAlign=middle;resizable=0;points=[];autosize=1;strokeColor=#B20000;fontSize=20;fillColor=#e51400;fontColor=#ffffff;" vertex="1" parent="1">
          <mxGeometry x="460" y="365" width="60" height="30" as="geometry" />
        </mxCell>
      </root>
    </mxGraphModel>
  </diagram>
</mxfile>
